<?xml version="1.0" encoding="UTF-8"?>
<svg width="383px" height="22px" viewBox="0 0 383 22" version="1.1" xmlns="http://www.w3.org/2000/svg" xmlns:xlink="http://www.w3.org/1999/xlink">
    <!-- Generator: Sketch 49.2 (51160) - http://www.bohemiancoding.com/sketch -->
    <title>harvard-long-light-text</title>
    <desc>Created with Sketch.</desc>
    <defs></defs>
    <g id="Page-1" stroke="none" stroke-width="1" fill="none" fill-rule="evenodd">
        <g id="harvard-long-light-text" fill="#F3F4F4" fill-rule="nonzero">
            <g id="Group">
                <g transform="translate(177.000000, 0.000000)" id="Shape">
                    <g>
                        <path d="M1.8,2.6 C1.8,1.7 1.2,1 0,0.8 L0,0.2 C0.7,0.2 2.9,0.3 3.5,0.3 C4,0.3 6.2,0.2 6.9,0.2 L6.9,0.8 C5.8,1 5.2,1.7 5.2,2.6 L5.2,14 C5.2,17.6 7.2,19.7 11.3,19.7 C14.9,19.7 17.7,18.1 17.7,14.3 L17.7,2.5 C17.7,1.6 17.2,1 15.8,0.7 L15.8,0.2 C16.3,0.2 18.1,0.3 18.7,0.3 C19.2,0.3 21.2,0.2 21.6,0.2 L21.6,0.8 C20.3,1.1 19.7,1.7 19.7,2.6 L19.7,13.7 C19.7,18.7 16.8,21.5 10.5,21.5 C4.7,21.5 1.6,18.8 1.6,14.2 L1.8,2.6 Z"></path>
                        <path d="M26.9,20.6 C28.3,20.4 28.8,19.7 28.8,18.8 L28.8,3 C28.8,1.7 28.1,1.1 26.9,0.7 L26.9,0.2 C27.6,0.3 28.7,0.3 29.3,0.3 C29.8,0.3 30.7,0.3 31.2,0.2 L44.9,16.3 L44.9,2.5 C44.9,1.6 44.4,1 43,0.7 L43,0.2 C43.5,0.2 45.2,0.3 45.9,0.3 C46.4,0.3 48.3,0.2 48.8,0.2 L48.8,0.8 C47.5,1.1 46.9,1.7 46.9,2.6 L46.9,21.6 L46.1,21.6 C45.6,21.5 44.6,20.9 43.1,19.3 L30.8,4.9 L30.8,18.8 C30.8,19.6 31.3,20.3 32.6,20.6 L32.6,21.2 C32.1,21.2 30.4,21.1 29.7,21.1 C29.2,21.1 27.3,21.2 26.8,21.2 L26.9,20.6 Z"></path>
                        <path d="M135,16.4 L135.6,16.4 C135.9,17.6 136.6,18.6 137.5,19.3 C138.5,20 140,20.3 141.3,20.3 C144.1,20.3 145.8,18.9 145.8,16.8 C145.8,14.6 143.6,13.4 140.9,12.1 C138.9,11.1 135,9.5 135,5.7 C135,2.2 137.7,-2.66453526e-15 142,-2.66453526e-15 C144.8,-2.66453526e-15 146.2,0.7 148.1,0.6 L148.1,4.9 L147.5,4.9 C146.7,2.4 144.4,1.5 141.9,1.5 C139.1,1.5 138,3.1 138,4.7 C138,7 140.3,8.2 142.9,9.4 C145.8,10.7 149,12.3 149,16 C149,19.4 146.3,22 141.4,22 C138.4,22 136.7,21.2 135.2,21 L135,16.4 Z"></path>
                        <path d="M193.8,12.5 L188.2,3.5 C187.2,1.9 186.5,1.1 185.5,0.7 L185.5,0.2 C186.3,0.2 188.3,0.3 188.9,0.3 C189.4,0.3 191.7,0.2 192.5,0.2 L192.5,0.8 C191.8,0.9 191.5,1.3 191.5,1.8 C191.5,2.3 191.8,2.9 192.1,3.4 C192.4,3.9 196.2,10.2 196.2,10.2 L200.2,3.4 C200.6,2.7 200.9,2 200.9,1.6 C200.9,1.2 200.6,0.9 199.9,0.8 L199.9,0.2 C200.6,0.2 202,0.3 202.4,0.3 C202.8,0.3 204.5,0.2 205.1,0.2 L205.1,0.7 C203.6,1.3 202.6,2.7 201.7,4.2 L196.6,12.7 M197,11.6 L197,18.7 C197,19.4 197.5,20.3 198.8,20.5 L198.8,21.1 C198.1,21.1 195.9,21 195.3,21 C194.8,21 192.6,21.1 191.9,21.1 L191.9,20.5 C193.1,20.3 193.7,19.4 193.7,18.7 L193.7,12"></path>
                    </g>
                    <path d="M90.2,0.2 L103.3,0.2 C103.7,0.2 104.4,0.2 104.8,0 L105.4,0 L105.3,4.3 L104.7,4.3 C104.2,3 103.7,1.9 101.2,1.9 L95.5,1.9 L95.5,9.3 C95.5,9.3 99.5,9.3 99.9,9.3 C100.5,9.3 101.3,9.2 101.7,9.2 C102.7,9 103.1,8.4 103.3,7.6 L103.9,7.6 C103.9,8.2 103.9,9.7 103.9,10.1 C103.9,10.5 103.9,12.1 103.9,12.8 L103.3,12.8 C103,12 102.6,11.3 101.7,11.1 C101.4,11 100.6,10.9 99.9,10.9 C99.6,10.9 95.5,10.9 95.5,10.9 L95.5,19.6 L101.7,19.6 C104.4,19.6 105.2,18.5 105.8,16.9 L106.4,17 L105.8,21.4 C103.8,21.2 102.6,21.2 100.3,21.2 L93.8,21.2 C93.2,21.2 90.9,21.3 90.2,21.3 L90.2,20.7 C91.4,20.5 92.1,19.9 92.1,18.8 L92.1,2.6 C92.1,1.6 91.6,1 90.2,0.8 L90.2,0.2 Z"></path>
                    <path d="M56.8,2.7 C56.8,1.6 56.2,1 54.9,0.8 L54.9,0.2 C55.6,0.2 57.9,0.3 58.5,0.3 C59.1,0.3 61.4,0.2 62.1,0.2 L62.1,0.8 C60.9,1.1 60.2,1.6 60.2,2.7 L60.2,18.7 C60.2,19.8 60.8,20.4 62.1,20.6 L62.1,21.2 C61.4,21.2 59.2,21.1 58.5,21.1 C57.9,21.1 55.6,21.2 54.9,21.2 L54.9,20.6 C56.2,20.4 56.8,19.8 56.8,18.7 L56.8,2.7 Z"></path>
                    <path d="M156,2.7 C156,1.6 155.4,1 154.1,0.8 L154.1,0.2 C154.8,0.2 157.1,0.3 157.7,0.3 C158.3,0.3 160.6,0.2 161.3,0.2 L161.3,0.8 C160.1,1.1 159.4,1.6 159.4,2.7 L159.4,18.7 C159.4,19.8 160,20.4 161.3,20.6 L161.3,21.2 C160.6,21.2 158.4,21.1 157.7,21.1 C157.1,21.1 154.8,21.2 154.1,21.2 L154.1,20.6 C155.4,20.4 156,19.8 156,18.7 L156,2.7 Z"></path>
                    <path d="M174.2,0.3 C167,0.3 165.9,0.2 164.4,0.1 L164.4,4.4 L165,4.4 C165.5,2.5 166.6,2 168,2 L172.5,2 L172.5,18.7 C172.5,19.8 171.9,20.4 170.6,20.6 L170.6,21.2 C171.3,21.2 173.7,21.1 174.2,21.1 C174.9,21.1 177.1,21.2 177.8,21.2 L177.8,20.6 C176.5,20.3 175.9,19.7 175.9,18.7 L175.9,2 L180.4,2 C181.8,2 182.9,2.5 183.4,4.4 L184,4.4 L184,0.1 C182.5,0.1 181.4,0.3 174.2,0.3 Z"></path>
                    <path d="M117,18.7 C117,19.8 117.7,20.4 119,20.6 L119,21.2 C118.3,21.2 116,21.1 115.4,21.1 C114.8,21.1 112.6,21.2 111.9,21.2 L111.9,20.6 C113.1,20.4 113.8,19.8 113.8,18.7 L113.8,2.6 C113.8,1.6 113.3,1 111.9,0.8 L111.9,0.1 C112.6,0.1 114.8,0.2 115.4,0.2 C116.4,0.2 119.4,-8.8817842e-16 120.5,-8.8817842e-16 C125.5,-8.8817842e-16 128.3,2.1 128.3,5.6 C128.3,8.4 126.2,10.3 123,11.1 C123,11.1 123.7,11.5 124.5,12.4 C125.4,13.4 127.8,16.9 128.8,18.1 C129.8,19.3 131.1,20.6 132.4,20.7 L132.4,21.2 C131.8,21.3 130.7,21.5 129.9,21.5 C128.2,21.5 126.8,20.9 125.5,19.3 C124.4,17.9 122.4,15 121.3,13.6 C120.6,12.7 119.7,11.9 118.1,11.7 C117.8,11.7 117.5,11.6 117.1,11.6 L117,18.7 Z M117,10.1 C117.7,10.2 118.6,10.2 119.6,10.2 C123.5,10.2 124.8,7.9 124.8,5.9 C124.8,3.1 122.9,1.3 119.5,1.3 C118.8,1.3 117.7,1.4 117,1.5 L117,10.1 Z"></path>
                    <path d="M67.1,2.8 C66.6,1.8 65.9,1 64.7,0.8 L64.7,0.2 C65.4,0.2 68,0.3 68.6,0.3 C69.1,0.3 71.4,0.2 72.1,0.2 L72.1,0.8 C71.4,0.9 70.6,1.3 70.6,2 C70.6,2.5 70.9,3.2 71.5,4.4 L76.9,16.7 L82,4.4 C82.4,3.4 82.7,2.6 82.7,2 C82.7,1.3 82.1,0.9 81.2,0.7 L81.2,0.2 C81.9,0.2 83.6,0.3 84.1,0.3 C84.6,0.3 86.5,0.2 87.3,0.2 L87.3,0.8 C86,1.1 85.2,1.9 84.5,3.5 L77,21.3 L75.3,21.3 L67.1,2.8 Z"></path>
                </g>
                <g id="Shape">
                    <path d="M73.6,2.8 C73.1,1.8 72.4,1 71.2,0.8 L71.2,0.2 C72,0.2 74.4,0.3 75,0.3 C75.5,0.3 77.9,0.2 78.7,0.2 L78.7,0.8 C78,0.9 77.3,1.3 77.3,2 C77.3,2.5 77.6,3.2 78.2,4.4 L83.6,16.7 L88.7,4.3 C89.1,3.3 89.4,2.5 89.4,1.9 C89.4,1.2 88.8,0.8 87.9,0.6 L87.9,0.2 C88.6,0.2 90.2,0.3 90.8,0.3 C91.3,0.3 93.2,0.2 94,0.2 L94,0.8 C92.7,1.1 91.9,1.9 91.2,3.6 L83.6,21.4 L81.9,21.4 L73.6,2.8 Z"></path>
                    <path d="M0.6,20.6 C1.6,20.4 2.3,19.9 2.3,18.8 L2.3,2.5 C2.3,1.4 1.7,1 0.6,0.7 L0.6,0.1 C1.1,0.1 3.3,0.2 3.9,0.2 C4.5,0.2 6.9,0.1 7.4,0.1 L7.4,0.7 C6.4,0.9 5.7,1.4 5.7,2.5 L5.7,9.3 L17.9,9.3 L17.9,2.5 C17.9,1.4 17.2,0.9 16.2,0.7 L16.2,0.1 C16.7,0.1 19,0.2 19.6,0.2 C20.1,0.2 22.4,0.1 22.9,0.1 L22.9,0.7 C21.9,0.9 21.2,1.4 21.2,2.5 L21.2,18.8 C21.2,19.9 21.9,20.3 22.9,20.6 L22.9,21.1 C22.4,21.1 20.1,21.1 19.6,21.1 C19,21.1 16.7,21.1 16.2,21.1 L16.2,20.6 C17.2,20.4 17.9,19.9 17.9,18.8 L17.9,11.1 L5.6,11.1 L5.6,18.8 C5.6,19.9 6.3,20.3 7.3,20.6 L7.3,21.1 C6.8,21.1 4.5,21.1 3.8,21.1 C3.3,21.1 1,21.1 0.5,21.1 L0.6,20.6 Z"></path>
                    <path d="M141.2,20.6 C142.5,20.4 143.2,19.9 143.2,18.7 L143.2,2.5 C143.2,1.4 142.5,0.9 141.3,0.7 L141.3,0.1 C142,0.1 144.3,0.2 144.9,0.2 C145.9,0.2 148.7,-8.8817842e-16 150.9,-8.8817842e-16 C158.4,-8.8817842e-16 162.9,4.2 162.9,10.5 C162.9,16.7 158.2,21.2 150.5,21.2 C148.3,21.2 145.8,21 144.7,21 C144.1,21 141.9,21.1 141.2,21.1 L141.2,20.6 Z M146.5,19.5 C147.3,19.6 148.7,19.7 149.8,19.7 C156.1,19.7 159.4,15.9 159.4,10.7 C159.4,5.2 156,1.4 150.1,1.4 C148.9,1.4 147.4,1.5 146.6,1.6 L146.5,19.5 Z"></path>
                    <path d="M56.5,18.7 C56.5,19.8 57.2,20.4 58.4,20.6 L58.4,21.2 C57.7,21.2 55.4,21.1 54.7,21.1 C54.1,21.1 51.9,21.2 51.2,21.2 L51.2,20.6 C52.4,20.4 53.1,19.8 53.1,18.7 L53.1,2.6 C53.1,1.6 52.6,1 51.2,0.8 L51.2,0.1 C51.9,0.1 54.1,0.2 54.7,0.2 C55.7,0.2 58.6,-8.8817842e-16 59.8,-8.8817842e-16 C64.8,-8.8817842e-16 67.6,2.1 67.6,5.6 C67.6,8.4 65.5,10.3 62.3,11.1 C62.3,11.1 63,11.5 63.8,12.4 C64.7,13.4 67.1,16.9 68.1,18.2 C69.1,19.4 70.4,20.7 71.7,20.8 L71.7,21.3 C71.1,21.4 70,21.6 69.2,21.6 C67.5,21.6 66.1,21 64.8,19.4 C63.7,18 61.7,15 60.5,13.6 C59.8,12.7 58.9,11.9 57.3,11.7 C57,11.7 56.7,11.6 56.3,11.6 C56.5,11.5 56.5,18.7 56.5,18.7 Z M56.5,10.1 C57.2,10.2 58.1,10.2 59.1,10.2 C63,10.2 64.3,7.9 64.3,5.9 C64.3,3.1 62.4,1.3 59,1.3 C58.3,1.3 57.3,1.4 56.5,1.5 C56.5,1.6 56.5,10.1 56.5,10.1 Z"></path>
                    <path d="M122.8,18.7 C122.8,19.8 123.5,20.4 124.7,20.6 L124.7,21.2 C124,21.2 121.7,21.1 121.1,21.1 C120.5,21.1 118.3,21.2 117.6,21.2 L117.6,20.6 C118.8,20.4 119.5,19.8 119.5,18.7 L119.5,2.6 C119.5,1.6 119,1 117.6,0.8 L117.6,0.1 C118.3,0.1 120.5,0.2 121.1,0.2 C122.1,0.2 125,-8.8817842e-16 126.2,-8.8817842e-16 C131.2,-8.8817842e-16 134,2.1 134,5.6 C134,8.4 131.9,10.3 128.7,11.1 C128.7,11.1 129.4,11.5 130.2,12.4 C131.1,13.4 133.5,16.9 134.5,18.2 C135.5,19.5 136.8,20.7 138.1,20.8 L138.1,21.3 C137.5,21.4 136.4,21.6 135.6,21.6 C133.9,21.6 132.5,21 131.2,19.4 C130.1,18 128.1,15 126.9,13.6 C126.2,12.7 125.3,11.9 123.7,11.7 C123.4,11.7 123.1,11.6 122.7,11.6 L122.8,18.7 Z M122.8,10.1 C123.5,10.2 124.4,10.2 125.4,10.2 C129.3,10.2 130.6,7.9 130.6,5.9 C130.6,3.1 128.7,1.3 125.3,1.3 C124.6,1.3 123.5,1.4 122.8,1.5 L122.8,10.1 Z"></path>
                    <path d="M26,20.6 C27.3,20.3 28.1,19.4 28.5,18.3 L35.2,2.1 C35.6,1.4 35.9,0 35.9,0 L37.8,0 C37.8,0 38.1,1.4 38.4,2.1 L45.5,18.3 C46,19.4 46.6,20.2 48,20.6 L48,21.1 C47.2,21.1 44.8,21.1 44.3,21.1 C43.8,21.1 41.5,21.1 40.7,21.1 L40.7,20.6 C41.7,20.3 42.1,19.8 42.1,19.3 C42.1,18.9 41.9,18.4 41.7,17.9 L40.2,14.4 L32.4,14.4 L31,17.9 C30.8,18.3 30.7,18.9 30.7,19.2 C30.7,19.8 31,20.2 32.2,20.6 L32.2,21.1 C31.5,21.1 29.7,21.1 29.2,21.1 L26.2,21.1 L26,20.6 Z M39.4,12.8 L36.1,5 L33,12.8 L39.4,12.8 Z"></path>
                    <path d="M92.7,20.6 C94,20.3 94.8,19.4 95.3,18.3 L102,2.1 C102.3,1.4 102.6,-4.4408921e-16 102.6,-4.4408921e-16 L104.5,-4.4408921e-16 C104.5,-4.4408921e-16 104.8,1.4 105.1,2.1 L112.2,18.3 C112.7,19.4 113.3,20.2 114.7,20.6 L114.7,21.1 C113.9,21.1 111.5,21.1 111,21.1 C110.5,21.1 108.2,21.1 107.4,21.1 L107.4,20.6 C108.4,20.3 108.8,19.8 108.8,19.3 C108.8,18.9 108.6,18.4 108.4,17.9 L106.9,14.4 L99,14.4 L97.6,17.9 C97.4,18.3 97.3,18.9 97.3,19.2 C97.3,19.8 97.6,20.2 98.8,20.6 L98.8,21.1 C98.1,21.1 96.3,21.1 95.8,21.1 L92.8,21.1 L92.7,20.6 Z M106.1,12.8 L102.8,5 L99.7,12.8 L106.1,12.8 Z"></path>
                </g>
            </g>
        </g>
    </g>
</svg>